<svg width="172" height="73" viewBox="0 0 172 73" fill="none" xmlns="http://www.w3.org/2000/svg">
<g clip-path="url(#clip0_3362_14154)">
<path d="M99.729 0H1.92271C0.860828 0 0 0.851026 0 1.90082V25.1876C0 26.2374 0.860828 27.0885 1.92271 27.0885H99.729C100.791 27.0885 101.652 26.2374 101.652 25.1876V1.90082C101.652 0.851026 100.791 0 99.729 0Z" fill="#F0572D"/>
<path d="M10.6937 63.503C9.4051 63.5034 8.11796 63.4178 6.84105 63.2467C5.65141 63.1044 4.48787 62.7976 3.38449 62.3354C2.41905 61.9468 1.57095 61.3192 0.921693 60.5129C0.271408 59.6393 -0.0541533 58.5706 -5.86715e-05 57.4873V31.2603H6.72584V43.8398L5.43683 41.7041C6.01781 41.0455 6.74145 40.5247 7.55397 40.1806C8.39193 39.8045 9.27531 39.5366 10.1824 39.3832C10.9114 39.2449 11.651 39.1686 12.3932 39.1554C15.8353 39.1554 18.4565 40.1806 20.2568 42.2309C22.0571 44.2812 22.9549 47.2808 22.9501 51.2295C23.0026 53.2122 22.6902 55.1878 22.0283 57.0602C21.5013 58.5131 20.6151 59.8126 19.4503 60.8404C18.3227 61.7908 17.0013 62.49 15.5761 62.8908C13.9863 63.3233 12.3423 63.5294 10.6937 63.503ZM10.6001 57.8504C11.7273 57.9206 12.8503 57.6579 13.8262 57.0957C14.6264 56.562 15.2323 55.7884 15.5545 54.8888C15.9222 53.8483 16.1002 52.7516 16.0802 51.6496C16.1273 50.2344 15.8823 48.8246 15.36 47.5062C15.0108 46.5796 14.3695 45.7884 13.5309 45.2494C12.6899 44.7726 11.7352 44.5268 10.7657 44.5375C10.0828 44.5464 9.40252 44.6228 8.73496 44.7653C8.04128 44.8989 7.37306 45.1391 6.75464 45.4772V55.679C6.74067 55.9155 6.77919 56.152 6.86752 56.3722C6.95584 56.5923 7.09183 56.7907 7.26592 56.9533C7.67833 57.2961 8.1753 57.5246 8.70616 57.6154C9.32615 57.7687 9.96121 57.8547 10.6001 57.8717V57.8504Z" fill="#191B1D"/>
<path d="M38.2023 63.5032C34.2704 63.5032 31.3131 62.4614 29.3304 60.3778C27.3477 58.2943 26.3587 55.2354 26.3635 51.2012C26.3635 46.8585 27.3693 43.7356 29.3808 41.8324C31.3924 39.9292 34.3328 38.98 38.2023 38.9847C40.4638 38.9119 42.7117 39.3578 44.7697 40.2875C46.5365 41.1285 47.963 42.5363 48.8168 44.2814C49.8037 46.456 50.2695 48.8266 50.1778 51.2084C50.1778 55.2426 49.148 58.3014 47.0885 60.385C45.029 62.4685 42.0669 63.5079 38.2023 63.5032ZM38.2023 58.0784C39.2096 58.1168 40.2032 57.8375 41.0395 57.281C41.8303 56.6935 42.4248 55.8851 42.7462 54.9602C43.1599 53.7503 43.355 52.4779 43.3223 51.2012C43.3721 49.8327 43.1771 48.4662 42.7462 47.1647C42.4343 46.2782 41.8243 45.5243 41.0179 45.0289C40.1537 44.5704 39.1827 44.3445 38.2023 44.3739C37.1931 44.3347 36.1936 44.5817 35.3218 45.0859C34.5418 45.5893 33.9618 46.3439 33.6799 47.2216C33.2845 48.513 33.1069 49.8599 33.1542 51.2084C33.1542 53.515 33.5599 55.2378 34.3712 56.3769C34.8083 56.9631 35.3897 57.4291 36.0602 57.7306C36.7307 58.0321 37.4681 58.1592 38.2023 58.0997V58.0784Z" fill="#191B1D"/>
<path d="M65.3795 63.5032C61.4477 63.5032 58.4904 62.4614 56.5077 60.3778C54.525 58.2943 53.536 55.2354 53.5408 51.2012C53.5408 46.8585 54.5466 43.7356 56.5581 41.8324C58.5696 39.9292 61.5101 38.98 65.3795 38.9847C67.6411 38.9119 69.8889 39.3578 71.947 40.2875C73.6991 41.1332 75.1121 42.5376 75.958 44.2743C76.945 46.4489 77.4107 48.8195 77.3191 51.2012C77.3191 55.2354 76.2893 58.2943 74.2298 60.3778C72.1702 62.4614 69.2201 63.5032 65.3795 63.5032ZM65.3795 58.0784C66.3869 58.1168 67.3805 57.8375 68.2168 57.281C69.0076 56.6935 69.6021 55.8851 69.9235 54.9602C70.3372 53.7503 70.5322 52.4779 70.4996 51.2012C70.5494 49.8327 70.3543 48.4662 69.9235 47.1647C69.6116 46.2782 69.0015 45.5243 68.1952 45.0289C67.3309 44.5704 66.3599 44.3445 65.3795 44.3739C64.3703 44.3347 63.3708 44.5817 62.4991 45.0859C61.7191 45.5893 61.139 46.3439 60.8572 47.2216C60.4617 48.513 60.2841 49.8599 60.3315 51.2084C60.3315 53.515 60.7372 55.2378 61.5485 56.3769C61.9855 56.9631 62.567 57.4291 63.2375 57.7306C63.908 58.0321 64.6454 58.1592 65.3795 58.0997V58.0784Z" fill="#191B1D"/>
<path d="M88.8984 62.8412H82.0789V31.0825H88.992L88.8984 62.8412ZM87.4581 50.1263L96.0275 39.7821H104.338L91.3756 53.3086L87.4581 50.1263ZM92.6646 47.1647L104.971 62.8269H96.258L87.775 51.7495L92.6646 47.1647Z" fill="#191B1D"/>
<path d="M109.177 36.6425V31.4028H116.277V36.6425H109.177ZM109.321 62.8411V40.1025H116.184L116.234 62.8411H109.321Z" fill="#191B1D"/>
<path d="M122.362 41.7395C123.106 41.3726 123.876 41.0609 124.667 40.8069C125.694 40.4671 126.739 40.1867 127.799 39.9668C128.937 39.7248 130.082 39.5254 131.234 39.3759C132.296 39.2279 133.366 39.1518 134.439 39.1481C136.253 39.1045 138.061 39.3744 139.782 39.9454C141.168 40.4053 142.36 41.3098 143.166 42.5155C144.025 43.9799 144.435 45.6591 144.347 47.3494V62.8407H137.478V48.7163C137.482 48.1747 137.397 47.6361 137.226 47.1216C137.064 46.627 136.783 46.179 136.407 45.8167C136.03 45.4543 135.57 45.1886 135.065 45.0428C134.38 44.8346 133.665 44.7361 132.948 44.7509C132.233 44.7529 131.52 44.8365 130.824 45.0001C130.269 45.1189 129.728 45.2955 129.211 45.5269V62.8407H122.348L122.362 41.7395Z" fill="#191B1D"/>
<path d="M159.369 63.5032C157.461 63.4478 155.591 62.9607 153.903 62.0793C152.362 61.2046 151.124 59.8892 150.353 58.3062C149.441 56.3446 149.007 54.1988 149.086 52.0413C149.02 49.8822 149.347 47.729 150.051 45.6839C150.585 44.1596 151.514 42.8 152.744 41.7399C153.963 40.766 155.392 40.0816 156.921 39.7394C158.702 39.3256 160.528 39.1272 162.358 39.1485C164.066 39.1155 165.768 39.356 167.398 39.8604C168.688 40.2489 169.849 40.9715 170.761 41.9534C171.568 42.8934 171.994 44.0956 171.957 45.3279V63.1259C171.988 64.5867 171.723 66.0389 171.179 67.3974C170.67 68.6053 169.869 69.6712 168.846 70.5013C167.743 71.3715 166.475 72.0132 165.116 72.3879C163.475 72.8384 161.777 73.0542 160.075 73.0286C158.305 73.0547 156.537 72.9092 154.796 72.5943C153.636 72.3999 152.511 72.0402 151.455 71.5265V65.5535C151.916 65.7386 152.593 65.9806 153.486 66.2654C154.464 66.5866 155.466 66.8364 156.481 67.0129C157.577 67.2112 158.688 67.3113 159.801 67.3119C160.946 67.3674 162.088 67.1653 163.142 66.721C163.856 66.3897 164.432 65.8269 164.777 65.1263C165.095 64.4088 165.253 63.6316 165.238 62.8482V59.1106L166.577 60.0646C166.089 60.757 165.497 61.3716 164.82 61.8871C164.109 62.4254 163.307 62.8351 162.451 63.0974C161.451 63.3865 160.411 63.5233 159.369 63.5032ZM161.119 58.3987C161.863 58.4037 162.606 58.32 163.33 58.1496C164.005 57.9808 164.656 57.7272 165.267 57.3949V46.8443C165.284 46.5761 165.244 46.3072 165.149 46.0556C165.053 45.8039 164.904 45.5753 164.712 45.3849C164.321 45.0336 163.845 44.7883 163.33 44.673C162.755 44.551 162.168 44.4913 161.58 44.495C160.395 44.4307 159.222 44.7507 158.238 45.4062C157.401 46.0462 156.789 46.9304 156.489 47.9335C156.119 49.1207 155.939 50.3578 155.956 51.5999C155.854 53.3741 156.361 55.1302 157.396 56.5833C157.824 57.1685 158.39 57.6417 159.045 57.9617C159.7 58.2818 160.425 58.4391 161.155 58.4201L161.119 58.3987Z" fill="#191B1D"/>
<path d="M6.39453 21.5356V6.64941H11.1113C13.4589 6.64941 15.2232 7.2759 16.4042 8.51463C17.5852 9.75337 18.1756 11.6115 18.1756 14.0818C18.1756 16.5522 17.5852 18.4103 16.4042 19.6561C15.2232 20.902 13.4589 21.5356 11.1113 21.5356H6.39453ZM8.022 20.0192H11.0033C12.9236 20.0192 14.3206 19.5446 15.1944 18.5954C16.0729 17.6414 16.505 16.1393 16.505 14.0889C16.505 12.0386 16.0729 10.5294 15.1944 9.58251C14.3158 8.63566 12.926 8.15868 11.0033 8.15868H8.022V20.0192Z" fill="white"/>
<path d="M23.7063 21.5356V6.64941H25.3338V21.5356H23.7063Z" fill="white"/>
<path d="M37.835 21.756C36.4948 21.8023 35.1653 21.5056 33.9752 20.8946C32.9318 20.3171 32.1095 19.4166 31.6348 18.3317C30.597 15.5936 30.597 12.5766 31.6348 9.8385C32.1143 8.76208 32.936 7.86974 33.9752 7.29696C35.1687 6.69656 36.4966 6.40509 37.835 6.44978C38.6528 6.45015 39.4684 6.53365 40.269 6.69895C41.0642 6.86094 41.8376 7.1142 42.5734 7.45358V9.12658C41.8548 8.8095 41.1164 8.53842 40.3626 8.315C39.6011 8.0888 38.8102 7.97368 38.015 7.97328C36.9337 7.93257 35.8593 8.16018 34.8897 8.63536C34.0649 9.07498 33.4208 9.78483 33.0678 10.643C32.6432 11.7416 32.4448 12.9131 32.4845 14.0886C32.4464 15.2687 32.6446 16.4445 33.0678 17.5486C33.4204 18.4087 34.0644 19.1209 34.8897 19.5633C35.8593 20.0385 36.9337 20.2661 38.015 20.2254C38.6033 20.2239 39.1907 20.1787 39.7721 20.0901C40.3457 20.0003 40.9115 19.867 41.4644 19.6914V15.4199H37.8638V13.8822H43.1207V20.5956C42.3057 20.9767 41.4509 21.2679 40.5715 21.4641C39.673 21.6613 38.7553 21.7592 37.835 21.756Z" fill="white"/>
<path d="M49.1841 21.5356V6.64941H50.8115V21.5356H49.1841Z" fill="white"/>
<path d="M60.7634 21.5356V8.17292H55.4346V6.64941H67.6766V8.17292H62.3693V21.5356H60.7634Z" fill="white"/>
<path d="M69.4912 21.5356L75.497 6.64941H77.1244L83.1014 21.5356H81.3659L76.1811 8.14445L76.5196 8.10172L71.2843 21.5356H69.4912ZM72.134 16.8939L72.8542 15.3562H80.2138L80.329 16.8939H72.134Z" fill="white"/>
<path d="M87.7031 21.5356V6.64941H89.3234V19.9694H97.0646V21.5356H87.7031Z" fill="white"/>
</g>
<defs>
<clipPath id="clip0_3362_14154">
<rect width="172" height="73" fill="white"/>
</clipPath>
</defs>
</svg>
